<svg height="512" viewBox="0 0 64 64" width="512" xmlns="http://www.w3.org/2000/svg"><g id="Email"><g fill="#9bc9ff"><path d="m3 25v36l23.729-18.001z"/><path d="m32 3-7.91 6h15.82z"/><path d="m37.27 43 .001-.001-5.271-3.999-5.271 3.999.001.001-.001-.001-23.729 18.001h58l-23.729-18.001z"/><path d="m61 61v-36l-23.729 17.999z"/></g><circle cx="32" cy="24" fill="none" r="4"/><path d="m3 25 6 4.551v-9.101z" fill="#9bc9ff"/><path d="m55 20.45v9.101l6-4.551z" fill="#9bc9ff"/><path d="m61.6 24.2-5.6-4.247v-10.953a1 1 0 0 0 -1-1h-14.753l-7.647-5.8a1 1 0 0 0 -1.208 0l-7.639 5.8h-14.753a1 1 0 0 0 -1 1v10.954l-5.6 4.246a1 1 0 0 0 -.4.8v36a1 1 0 0 0 1 1h58a1 1 0 0 0 1-1v-36a1 1 0 0 0 -.4-.8zm-57.6 2.814 21.074 15.986-21.074 15.986zm28 13.241 26.027 19.745h-52.054zm6.926 2.745 21.074-15.986v31.972zm20.419-18-3.345 2.537v-5.073zm-27.345-20.745 4.937 3.745h-9.874zm22 5.745v19.054l-16.729 12.689-4.671-3.543a1 1 0 0 0 -1.208 0l-4.667 3.541-16.725-12.687v-19.054zm-46 17.537-3.345-2.537 3.345-2.537z" fill="#1e81ce"/><path d="m32 33h3a1 1 0 0 0 0-2h-3a7 7 0 1 1 7-7v2a1 1 0 0 1 -2 0v-2a5.024 5.024 0 1 0 -1.534 3.59 2.994 2.994 0 0 0 5.534-1.59v-2a9 9 0 1 0 -9 9zm0-6a3 3 0 1 1 3-3 3 3 0 0 1 -3 3z" fill="#1e81ce"/></g></svg>